<?xml version="1.0" encoding="UTF-8"?>
<!DOCTYPE svg PUBLIC "-//W3C//DTD SVG 1.1//EN" "http://www.w3.org/Graphics/SVG/1.1/DTD/svg11.dtd">
<svg xmlns="http://www.w3.org/2000/svg" version="1.1" width="145px" height="145px" style="shape-rendering:geometricPrecision; text-rendering:geometricPrecision; image-rendering:optimizeQuality; fill-rule:evenodd; clip-rule:evenodd" xmlns:xlink="http://www.w3.org/1999/xlink">
<g><path style="opacity:1" fill="#fffefe" d="M -0.5,-0.5 C 47.8333,-0.5 96.1667,-0.5 144.5,-0.5C 144.5,47.8333 144.5,96.1667 144.5,144.5C 96.1667,144.5 47.8333,144.5 -0.5,144.5C -0.5,96.1667 -0.5,47.8333 -0.5,-0.5 Z"/></g>
<g><path style="opacity:1" fill="#f31ed2" d="M 87.5,18.5 C 78.8333,19.8333 70.1667,19.8333 61.5,18.5C 65.5876,15.7541 69.921,13.4208 74.5,11.5C 79.079,13.4208 83.4124,15.7541 87.5,18.5 Z"/></g>
<g><path style="opacity:1" fill="#f522bd" d="M 61.5,18.5 C 70.1667,19.8333 78.8333,19.8333 87.5,18.5C 91.3723,20.5974 95.039,22.9308 98.5,25.5C 94.6286,25.185 90.9619,25.5184 87.5,26.5C 84.3388,25.0869 81.3388,23.4203 78.5,21.5C 77.4789,21.8993 77.1455,23.2326 77.5,25.5C 75.5,25.5 73.5,25.5 71.5,25.5C 71.8545,23.2326 71.5211,21.8993 70.5,21.5C 67.3388,22.9131 64.3388,24.5797 61.5,26.5C 58.0381,25.5184 54.3714,25.185 50.5,25.5C 53.8763,22.8059 57.543,20.4726 61.5,18.5 Z"/></g>
<g><path style="opacity:1" fill="#fff9fc" d="M 70.5,21.5 C 70.8182,26.0323 70.4849,30.3656 69.5,34.5C 66.0246,32.5928 62.6912,30.4262 59.5,28C 60.0442,27.2828 60.7109,26.7828 61.5,26.5C 64.3388,24.5797 67.3388,22.9131 70.5,21.5 Z"/></g>
<g><path style="opacity:1" fill="#fff8fc" d="M 78.5,21.5 C 81.3388,23.4203 84.3388,25.0869 87.5,26.5C 87.9175,27.2216 88.5842,27.7216 89.5,28C 86.3088,30.4262 82.9754,32.5928 79.5,34.5C 78.5151,30.3656 78.1818,26.0323 78.5,21.5 Z"/></g>
<g><path style="opacity:1" fill="#fa85cd" d="M 71.5,25.5 C 71.8204,28.8984 71.487,32.2317 70.5,35.5C 69.8933,35.3764 69.56,35.0431 69.5,34.5C 70.4849,30.3656 70.8182,26.0323 70.5,21.5C 71.5211,21.8993 71.8545,23.2326 71.5,25.5 Z"/></g>
<g><path style="opacity:1" fill="#fa86ce" d="M 78.5,21.5 C 78.1818,26.0323 78.5151,30.3656 79.5,34.5C 79.44,35.0431 79.1067,35.3764 78.5,35.5C 77.513,32.2317 77.1796,28.8984 77.5,25.5C 77.1455,23.2326 77.4789,21.8993 78.5,21.5 Z"/></g>
<g><path style="opacity:1" fill="#fffcfd" d="M 56.5,35.5 C 58.4832,36.4706 60.4832,37.4706 62.5,38.5C 65.2028,40.1807 67.8695,41.8474 70.5,43.5C 70.6662,49.5092 70.4995,55.5092 70,61.5C 65.5549,58.6959 61.0549,56.0292 56.5,53.5C 56.1667,53.5 55.8333,53.5 55.5,53.5C 55.1771,47.31 55.5104,41.31 56.5,35.5 Z"/></g>
<g><path style="opacity:1" fill="#f81d8e" d="M 50.5,25.5 C 54.3714,25.185 58.0381,25.5184 61.5,26.5C 60.7109,26.7828 60.0442,27.2828 59.5,28C 62.6912,30.4262 66.0246,32.5928 69.5,34.5C 69.56,35.0431 69.8933,35.3764 70.5,35.5C 71.487,32.2317 71.8204,28.8984 71.5,25.5C 73.5,25.5 75.5,25.5 77.5,25.5C 77.1796,28.8984 77.513,32.2317 78.5,35.5C 79.1067,35.3764 79.44,35.0431 79.5,34.5C 82.9754,32.5928 86.3088,30.4262 89.5,28C 88.5842,27.7216 87.9175,27.2216 87.5,26.5C 90.9619,25.5184 94.6286,25.185 98.5,25.5C 99.1174,25.6107 99.6174,25.944 100,26.5C 100.499,30.8206 100.666,35.1539 100.5,39.5C 98.5,39.5 96.5,39.5 94.5,39.5C 94.7852,37.712 94.4519,36.0453 93.5,34.5C 92.8933,34.6236 92.56,34.9569 92.5,35.5C 90.5,36.5 88.5,37.5 86.5,38.5C 86.631,37.7611 86.4643,37.0944 86,36.5C 78.895,37.2372 71.5617,37.2372 64,36.5C 63.2828,37.0442 62.7828,37.7109 62.5,38.5C 60.4832,37.4706 58.4832,36.4706 56.5,35.5C 56.44,34.9569 56.1067,34.6236 55.5,34.5C 54.5481,36.0453 54.2148,37.712 54.5,39.5C 52.5,39.5 50.5,39.5 48.5,39.5C 48.3343,35.1539 48.501,30.8206 49,26.5C 49.3826,25.944 49.8826,25.6107 50.5,25.5 Z"/></g>
<g><path style="opacity:1" fill="#fffcfd" d="M 92.5,35.5 C 93.4896,41.31 93.8229,47.31 93.5,53.5C 93.1667,53.5 92.8333,53.5 92.5,53.5C 87.9451,56.0292 83.4451,58.6959 79,61.5C 78.5005,55.5092 78.3338,49.5092 78.5,43.5C 81.1305,41.8474 83.7972,40.1807 86.5,38.5C 88.5,37.5 90.5,36.5 92.5,35.5 Z"/></g>
<g><path style="opacity:1" fill="#fa296f" d="M 86.5,38.5 C 83.7972,40.1807 81.1305,41.8474 78.5,43.5C 77.6762,47.3123 77.1762,51.3123 77,55.5C 75.3745,55.8541 73.5412,55.8541 71.5,55.5C 71.8168,51.2984 71.4834,47.2984 70.5,43.5C 67.8695,41.8474 65.2028,40.1807 62.5,38.5C 62.7828,37.7109 63.2828,37.0442 64,36.5C 71.5617,37.2372 78.895,37.2372 86,36.5C 86.4643,37.0944 86.631,37.7611 86.5,38.5 Z"/></g>
<g><path style="opacity:1" fill="#fc8fb3" d="M 56.5,35.5 C 55.5104,41.31 55.1771,47.31 55.5,53.5C 54.5139,49.03 54.1805,44.3633 54.5,39.5C 54.2148,37.712 54.5481,36.0453 55.5,34.5C 56.1067,34.6236 56.44,34.9569 56.5,35.5 Z"/></g>
<g><path style="opacity:1" fill="#fc91b0" d="M 92.5,35.5 C 92.56,34.9569 92.8933,34.6236 93.5,34.5C 94.4519,36.0453 94.7852,37.712 94.5,39.5C 94.8195,44.3633 94.4861,49.03 93.5,53.5C 93.8229,47.31 93.4896,41.31 92.5,35.5 Z"/></g>
<g><path style="opacity:1" fill="#fa3462" d="M 48.5,39.5 C 50.5,39.5 52.5,39.5 54.5,39.5C 54.1805,44.3633 54.5139,49.03 55.5,53.5C 55.8333,53.5 56.1667,53.5 56.5,53.5C 54.0521,54.4731 51.3854,54.8064 48.5,54.5C 48.5,49.5 48.5,44.5 48.5,39.5 Z"/></g>
<g><path style="opacity:1" fill="#fa3462" d="M 94.5,39.5 C 96.5,39.5 98.5,39.5 100.5,39.5C 100.5,44.5 100.5,49.5 100.5,54.5C 97.6146,54.8064 94.9479,54.4731 92.5,53.5C 92.8333,53.5 93.1667,53.5 93.5,53.5C 94.4861,49.03 94.8195,44.3633 94.5,39.5 Z"/></g>
<g><path style="opacity:1" fill="#fc6960" d="M 70.5,43.5 C 71.4834,47.2984 71.8168,51.2984 71.5,55.5C 73.5412,55.8541 75.3745,55.8541 77,55.5C 77.1762,51.3123 77.6762,47.3123 78.5,43.5C 78.3338,49.5092 78.5005,55.5092 79,61.5C 83.4451,58.6959 87.9451,56.0292 92.5,53.5C 94.9479,54.4731 97.6146,54.8064 100.5,54.5C 100.489,56.0174 99.8228,57.1841 98.5,58C 90.8201,62.8624 82.8201,67.0291 74.5,70.5C 67.2735,67.5534 60.2735,64.0534 53.5,60C 50.921,58.9243 49.2543,57.091 48.5,54.5C 51.3854,54.8064 54.0521,54.4731 56.5,53.5C 61.0549,56.0292 65.5549,58.6959 70,61.5C 70.4995,55.5092 70.6662,49.5092 70.5,43.5 Z"/></g>
<g><path style="opacity:1" fill="#f31cdd" d="M 88.5,84.5 C 86.1667,84.5 83.8333,84.5 81.5,84.5C 77.8344,82.7864 75.8344,84.1197 75.5,88.5C 72.9179,88.9746 70.9179,88.3079 69.5,86.5C 72.2555,78.4769 77.5888,76.3103 85.5,80C 86.8825,81.2708 87.8825,82.7708 88.5,84.5 Z"/></g>
<g><path style="opacity:1" fill="#f218e1" d="M 114.5,82.5 C 112.282,84.8441 109.615,85.1774 106.5,83.5C 104.085,82.3516 102.085,83.0183 100.5,85.5C 98.2646,85.7947 96.2646,85.4614 94.5,84.5C 96.1549,79.8547 99.4882,77.5214 104.5,77.5C 108.879,77.2811 112.213,78.9477 114.5,82.5 Z"/></g>
<g><path style="opacity:1" fill="#f329dc" d="M 44.5,84.5 C 41.0381,85.4816 37.3714,85.815 33.5,85.5C 33.5,83.5 33.5,81.5 33.5,79.5C 37.1667,79.5 40.8333,79.5 44.5,79.5C 44.5,81.1667 44.5,82.8333 44.5,84.5 Z"/></g>
<g><path style="opacity:1" fill="#fff1f7" d="M 81.5,84.5 C 82.9395,86.588 83.6061,88.9214 83.5,91.5C 83.5,92.8333 83.5,94.1667 83.5,95.5C 83.5,97.5 83.5,99.5 83.5,101.5C 80.5,101.5 77.5,101.5 74.5,101.5C 74.5,99.8333 74.5,98.1667 74.5,96.5C 74.2786,93.7212 74.612,91.0545 75.5,88.5C 75.8344,84.1197 77.8344,82.7864 81.5,84.5 Z"/></g>
<g><path style="opacity:1" fill="#f30eca" d="M 63.5,88.5 C 60.1667,88.5 56.8333,88.5 53.5,88.5C 53.5,87.5 53.5,86.5 53.5,85.5C 53.5,83.5 53.5,81.5 53.5,79.5C 56.8333,79.5 60.1667,79.5 63.5,79.5C 63.5,82.5 63.5,85.5 63.5,88.5 Z"/></g>
<g><path style="opacity:1" fill="#f527ba" d="M 114.5,82.5 C 116.508,89.323 114.008,91.6563 107,89.5C 106.505,87.5273 106.338,85.5273 106.5,83.5C 109.615,85.1774 112.282,84.8441 114.5,82.5 Z"/></g>
<g><path style="opacity:1" fill="#f621a8" d="M 44.5,84.5 C 45.4824,88.3164 46.1491,92.3164 46.5,96.5C 44.9582,95.6993 43.2915,95.366 41.5,95.5C 40.794,94.4427 40.4607,94.7761 40.5,96.5C 38.1667,95.1667 35.8333,95.1667 33.5,96.5C 33.5,92.8333 33.5,89.1667 33.5,85.5C 37.3714,85.815 41.0381,85.4816 44.5,84.5 Z"/></g>
<g><path style="opacity:1" fill="#f518b0" d="M 81.5,84.5 C 83.8333,84.5 86.1667,84.5 88.5,84.5C 89.4345,85.5676 89.7678,86.901 89.5,88.5C 89.5,89.5 89.5,90.5 89.5,91.5C 87.5,91.5 85.5,91.5 83.5,91.5C 83.6061,88.9214 82.9395,86.588 81.5,84.5 Z"/></g>
<g><path style="opacity:1" fill="#f725a1" d="M 94.5,84.5 C 96.2646,85.4614 98.2646,85.7947 100.5,85.5C 100.372,89.5847 102.039,92.5847 105.5,94.5C 102.167,94.5 98.8333,94.5 95.5,94.5C 94.0277,92.8825 93.361,90.8825 93.5,88.5C 93.5108,86.9549 93.8442,85.6216 94.5,84.5 Z"/></g>
<g><path style="opacity:1" fill="#f8228f" d="M 53.5,85.5 C 53.5,86.5 53.5,87.5 53.5,88.5C 56.8333,88.5 60.1667,88.5 63.5,88.5C 63.5,90.5 63.5,92.5 63.5,94.5C 62.6618,94.8417 62.3284,95.5084 62.5,96.5C 60.8333,96.5 59.1667,96.5 57.5,96.5C 56.6679,96.754 56.0013,97.754 55.5,99.5C 54.4479,97.744 52.7812,97.0773 50.5,97.5C 51.2133,93.313 52.2133,89.313 53.5,85.5 Z"/></g>
<g><path style="opacity:1" fill="#f93a95" d="M 89.5,88.5 C 90.8333,92.1667 90.8333,95.8333 89.5,99.5C 89.5,98.1667 89.5,96.8333 89.5,95.5C 87.5,95.5 85.5,95.5 83.5,95.5C 83.5,94.1667 83.5,92.8333 83.5,91.5C 85.5,91.5 87.5,91.5 89.5,91.5C 89.5,90.5 89.5,89.5 89.5,88.5 Z"/></g>
<g><path style="opacity:1" fill="#f8168e" d="M 69.5,86.5 C 70.9179,88.3079 72.9179,88.9746 75.5,88.5C 74.612,91.0545 74.2786,93.7212 74.5,96.5C 72.5,96.5 70.5,96.5 68.5,96.5C 68.1872,92.9581 68.5206,89.6248 69.5,86.5 Z"/></g>
<g><path style="opacity:1" fill="#fa2566" d="M 83.5,95.5 C 85.5,95.5 87.5,95.5 89.5,95.5C 89.5,96.8333 89.5,98.1667 89.5,99.5C 89.5,101.167 89.5,102.833 89.5,104.5C 82.5,104.5 75.5,104.5 68.5,104.5C 68.5,101.833 68.5,99.1667 68.5,96.5C 70.5,96.5 72.5,96.5 74.5,96.5C 74.5,98.1667 74.5,99.8333 74.5,101.5C 77.5,101.5 80.5,101.5 83.5,101.5C 83.5,99.5 83.5,97.5 83.5,95.5 Z"/></g>
<g><path style="opacity:1" fill="#fa2f6c" d="M 95.5,94.5 C 98.8333,94.5 102.167,94.5 105.5,94.5C 111.145,97.1348 114.478,101.468 115.5,107.5C 113.5,107.5 111.5,107.5 109.5,107.5C 106.625,103.719 102.958,100.886 98.5,99C 96.8588,97.871 95.8588,96.371 95.5,94.5 Z"/></g>
<g><path style="opacity:1" fill="#fa2865" d="M 57.5,96.5 C 59.1667,96.5 60.8333,96.5 62.5,96.5C 62.5,99.1667 62.5,101.833 62.5,104.5C 60.8333,104.5 59.1667,104.5 57.5,104.5C 57.5,101.833 57.5,99.1667 57.5,96.5 Z"/></g>
<g><path style="opacity:1" fill="#fb4268" d="M 41.5,95.5 C 43.2915,95.366 44.9582,95.6993 46.5,96.5C 47.0388,98.5049 47.7055,100.505 48.5,102.5C 49.9501,101.15 50.6168,99.4835 50.5,97.5C 52.7812,97.0773 54.4479,97.744 55.5,99.5C 55.6893,103.037 55.0226,106.37 53.5,109.5C 50.5,109.5 47.5,109.5 44.5,109.5C 43.5008,104.838 42.5008,100.171 41.5,95.5 Z"/></g>
<g><path style="opacity:1" fill="#fb4a5d" d="M 68.5,104.5 C 75.5,104.5 82.5,104.5 89.5,104.5C 89.5,106.833 89.5,109.167 89.5,111.5C 86.6122,112.01 84.2789,111.344 82.5,109.5C 80.7211,107.656 78.3878,106.99 75.5,107.5C 75.5,108.833 75.5,110.167 75.5,111.5C 73.1667,111.5 70.8333,111.5 68.5,111.5C 68.5,109.167 68.5,106.833 68.5,104.5 Z"/></g>
<g><path style="opacity:1" fill="#fb4660" d="M 40.5,96.5 C 40.5,102.167 40.5,107.833 40.5,113.5C 38.1667,113.5 35.8333,113.5 33.5,113.5C 33.5,113.167 33.5,112.833 33.5,112.5C 33.5,107.167 33.5,101.833 33.5,96.5C 35.8333,95.1667 38.1667,95.1667 40.5,96.5 Z"/></g>
<g><path style="opacity:1" fill="#fc6a54" d="M 44.5,109.5 C 47.5,109.5 50.5,109.5 53.5,109.5C 53.1667,112.167 52.8333,114.833 52.5,117.5C 50.1667,117.5 47.8333,117.5 45.5,117.5C 44.9084,114.873 44.5751,112.206 44.5,109.5 Z"/></g>
<g><path style="opacity:1" fill="#fc6265" d="M 63.5,94.5 C 63.5,100.833 63.5,107.167 63.5,113.5C 61.5,113.5 59.5,113.5 57.5,113.5C 57.5,111.5 57.5,109.5 57.5,107.5C 57.5,106.5 57.5,105.5 57.5,104.5C 59.1667,104.5 60.8333,104.5 62.5,104.5C 62.5,101.833 62.5,99.1667 62.5,96.5C 62.3284,95.5084 62.6618,94.8417 63.5,94.5 Z"/></g>
<g><path style="opacity:1" fill="#fe8c66" d="M 57.5,107.5 C 57.5,109.5 57.5,111.5 57.5,113.5C 59.5,113.5 61.5,113.5 63.5,113.5C 64.4682,115.607 64.8016,117.941 64.5,120.5C 61.8333,120.5 59.1667,120.5 56.5,120.5C 56.1818,115.968 56.5151,111.634 57.5,107.5 Z"/></g>
<g><path style="opacity:1" fill="#fd7e5a" d="M 82.5,109.5 C 84.2789,111.344 86.6122,112.01 89.5,111.5C 89.5,114.167 89.5,116.833 89.5,119.5C 86.8333,119.5 84.1667,119.5 81.5,119.5C 81.1872,115.958 81.5206,112.625 82.5,109.5 Z"/></g>
<g><path style="opacity:1" fill="#fc7a4e" d="M 33.5,113.5 C 35.8333,113.5 38.1667,113.5 40.5,113.5C 40.5,114.167 40.5,114.833 40.5,115.5C 40.5,116.5 40.5,117.5 40.5,118.5C 38.1667,118.5 35.8333,118.5 33.5,118.5C 33.5,116.833 33.5,115.167 33.5,113.5 Z"/></g>
<g><path style="opacity:1" fill="#fc7756" d="M 109.5,107.5 C 111.5,107.5 113.5,107.5 115.5,107.5C 116.133,115.53 112.467,119.863 104.5,120.5C 94.7583,119.74 91.7583,114.907 95.5,106C 101.493,104.332 103.993,106.498 103,112.5C 99.9268,114.336 100.427,115.336 104.5,115.5C 108.993,114.823 110.66,112.156 109.5,107.5 Z"/></g>
<g><path style="opacity:1" fill="#fec0a2" d="M 33.5,112.5 C 33.5,112.833 33.5,113.167 33.5,113.5C 33.5,115.167 33.5,116.833 33.5,118.5C 35.8333,118.5 38.1667,118.5 40.5,118.5C 40.5,117.5 40.5,116.5 40.5,115.5C 41.4345,116.568 41.7678,117.901 41.5,119.5C 38.5,119.5 35.5,119.5 32.5,119.5C 32.1984,116.941 32.5318,114.607 33.5,112.5 Z"/></g>
<g><path style="opacity:1" fill="#fd885b" d="M 68.5,111.5 C 70.8333,111.5 73.1667,111.5 75.5,111.5C 76.299,114.43 76.6323,117.43 76.5,120.5C 73.8333,120.5 71.1667,120.5 68.5,120.5C 68.5,117.5 68.5,114.5 68.5,111.5 Z"/></g>
</svg>
