<?xml version="1.0" encoding="UTF-8"?>
<svg xmlns="http://www.w3.org/2000/svg" xmlns:xlink="http://www.w3.org/1999/xlink" width="64px" height="64px" viewBox="0 0 64 64" version="1.1">
<g id="surface1">
<path style=" stroke:none;fill-rule:evenodd;fill:rgb(100%,99.607843%,99.607843%);fill-opacity:1;" d="M -0.21875 -0.21875 C 21.113281 -0.21875 42.445312 -0.21875 63.78125 -0.21875 C 63.78125 21.113281 63.78125 42.445312 63.78125 63.78125 C 42.445312 63.78125 21.113281 63.78125 -0.21875 63.78125 C -0.21875 42.445312 -0.21875 21.113281 -0.21875 -0.21875 Z M -0.21875 -0.21875 "/>
<path style=" stroke:none;fill-rule:evenodd;fill:rgb(95.294118%,11.764706%,82.352941%);fill-opacity:1;" d="M 38.621094 8.164062 C 34.796875 8.753906 30.96875 8.753906 27.144531 8.164062 C 28.949219 6.953125 30.863281 5.921875 32.882812 5.074219 C 34.902344 5.921875 36.816406 6.953125 38.621094 8.164062 Z M 38.621094 8.164062 "/>
<path style=" stroke:none;fill-rule:evenodd;fill:rgb(96.078431%,13.333333%,74.117647%);fill-opacity:1;" d="M 27.144531 8.164062 C 30.96875 8.753906 34.796875 8.753906 38.621094 8.164062 C 40.328125 9.089844 41.949219 10.121094 43.476562 11.253906 C 41.765625 11.117188 40.148438 11.261719 38.621094 11.695312 C 37.226562 11.074219 35.902344 10.335938 34.648438 9.488281 C 34.199219 9.664062 34.050781 10.253906 34.207031 11.253906 C 33.324219 11.253906 32.441406 11.253906 31.558594 11.253906 C 31.714844 10.253906 31.566406 9.664062 31.117188 9.488281 C 29.722656 10.113281 28.398438 10.847656 27.144531 11.695312 C 25.617188 11.261719 24 11.117188 22.289062 11.253906 C 23.78125 10.066406 25.398438 9.035156 27.144531 8.164062 Z M 27.144531 8.164062 "/>
<path style=" stroke:none;fill-rule:evenodd;fill:rgb(100%,97.647059%,98.823529%);fill-opacity:1;" d="M 31.117188 9.488281 C 31.257812 11.488281 31.109375 13.402344 30.675781 15.226562 C 29.140625 14.386719 27.671875 13.429688 26.261719 12.359375 C 26.503906 12.042969 26.796875 11.820312 27.144531 11.695312 C 28.398438 10.847656 29.722656 10.113281 31.117188 9.488281 Z M 31.117188 9.488281 "/>
<path style=" stroke:none;fill-rule:evenodd;fill:rgb(100%,97.254902%,98.823529%);fill-opacity:1;" d="M 34.648438 9.488281 C 35.902344 10.335938 37.226562 11.074219 38.621094 11.695312 C 38.804688 12.015625 39.097656 12.234375 39.503906 12.359375 C 38.09375 13.429688 36.625 14.386719 35.089844 15.226562 C 34.65625 13.402344 34.507812 11.488281 34.648438 9.488281 Z M 34.648438 9.488281 "/>
<path style=" stroke:none;fill-rule:evenodd;fill:rgb(98.039216%,52.156863%,80.392157%);fill-opacity:1;" d="M 31.558594 11.253906 C 31.699219 12.753906 31.554688 14.226562 31.117188 15.667969 C 30.847656 15.613281 30.703125 15.46875 30.675781 15.226562 C 31.109375 13.402344 31.257812 11.488281 31.117188 9.488281 C 31.566406 9.664062 31.714844 10.253906 31.558594 11.253906 Z M 31.558594 11.253906 "/>
<path style=" stroke:none;fill-rule:evenodd;fill:rgb(98.039216%,52.54902%,80.784314%);fill-opacity:1;" d="M 34.648438 9.488281 C 34.507812 11.488281 34.65625 13.402344 35.089844 15.226562 C 35.0625 15.46875 34.917969 15.613281 34.648438 15.667969 C 34.210938 14.226562 34.066406 12.753906 34.207031 11.253906 C 34.050781 10.253906 34.199219 9.664062 34.648438 9.488281 Z M 34.648438 9.488281 "/>
<path style=" stroke:none;fill-rule:evenodd;fill:rgb(100%,98.823529%,99.215686%);fill-opacity:1;" d="M 24.9375 15.667969 C 25.8125 16.097656 26.695312 16.539062 27.585938 16.992188 C 28.777344 17.734375 29.957031 18.46875 31.117188 19.199219 C 31.191406 21.851562 31.117188 24.5 30.898438 27.144531 C 28.933594 25.90625 26.949219 24.730469 24.9375 23.613281 C 24.789062 23.613281 24.644531 23.613281 24.496094 23.613281 C 24.355469 20.882812 24.5 18.234375 24.9375 15.667969 Z M 24.9375 15.667969 "/>
<path style=" stroke:none;fill-rule:evenodd;fill:rgb(97.254902%,11.372549%,55.686275%);fill-opacity:1;" d="M 22.289062 11.253906 C 24 11.117188 25.617188 11.261719 27.144531 11.695312 C 26.796875 11.820312 26.503906 12.042969 26.261719 12.359375 C 27.671875 13.429688 29.140625 14.386719 30.675781 15.226562 C 30.703125 15.46875 30.847656 15.613281 31.117188 15.667969 C 31.554688 14.226562 31.699219 12.753906 31.558594 11.253906 C 32.441406 11.253906 33.324219 11.253906 34.207031 11.253906 C 34.066406 12.753906 34.210938 14.226562 34.648438 15.667969 C 34.917969 15.613281 35.0625 15.46875 35.089844 15.226562 C 36.625 14.386719 38.09375 13.429688 39.503906 12.359375 C 39.097656 12.234375 38.804688 12.015625 38.621094 11.695312 C 40.148438 11.261719 41.765625 11.117188 43.476562 11.253906 C 43.75 11.304688 43.96875 11.449219 44.136719 11.695312 C 44.359375 13.605469 44.433594 15.515625 44.359375 17.433594 C 43.476562 17.433594 42.59375 17.433594 41.710938 17.433594 C 41.835938 16.644531 41.6875 15.910156 41.269531 15.226562 C 41 15.28125 40.855469 15.429688 40.828125 15.667969 C 39.945312 16.109375 39.0625 16.550781 38.179688 16.992188 C 38.238281 16.667969 38.164062 16.371094 37.957031 16.109375 C 34.824219 16.4375 31.585938 16.4375 28.25 16.109375 C 27.933594 16.351562 27.710938 16.644531 27.585938 16.992188 C 26.695312 16.539062 25.8125 16.097656 24.9375 15.667969 C 24.910156 15.429688 24.765625 15.28125 24.496094 15.226562 C 24.078125 15.910156 23.929688 16.644531 24.054688 17.433594 C 23.171875 17.433594 22.289062 17.433594 21.40625 17.433594 C 21.332031 15.515625 21.40625 13.605469 21.628906 11.695312 C 21.796875 11.449219 22.015625 11.304688 22.289062 11.253906 Z M 22.289062 11.253906 "/>
<path style=" stroke:none;fill-rule:evenodd;fill:rgb(100%,98.823529%,99.215686%);fill-opacity:1;" d="M 40.828125 15.667969 C 41.265625 18.234375 41.410156 20.882812 41.269531 23.613281 C 41.121094 23.613281 40.976562 23.613281 40.828125 23.613281 C 38.816406 24.730469 36.832031 25.90625 34.867188 27.144531 C 34.648438 24.5 34.574219 21.851562 34.648438 19.199219 C 35.808594 18.46875 36.988281 17.734375 38.179688 16.992188 C 39.0625 16.550781 39.945312 16.109375 40.828125 15.667969 Z M 40.828125 15.667969 "/>
<path style=" stroke:none;fill-rule:evenodd;fill:rgb(98.039216%,16.078431%,43.529412%);fill-opacity:1;" d="M 38.179688 16.992188 C 36.988281 17.734375 35.808594 18.46875 34.648438 19.199219 C 34.285156 20.882812 34.0625 22.648438 33.984375 24.496094 C 33.269531 24.652344 32.460938 24.652344 31.558594 24.496094 C 31.699219 22.640625 31.550781 20.875 31.117188 19.199219 C 29.957031 18.46875 28.777344 17.734375 27.585938 16.992188 C 27.710938 16.644531 27.933594 16.351562 28.25 16.109375 C 31.585938 16.4375 34.824219 16.4375 37.957031 16.109375 C 38.164062 16.371094 38.238281 16.667969 38.179688 16.992188 Z M 38.179688 16.992188 "/>
<path style=" stroke:none;fill-rule:evenodd;fill:rgb(98.823529%,56.078431%,70.196078%);fill-opacity:1;" d="M 24.9375 15.667969 C 24.5 18.234375 24.355469 20.882812 24.496094 23.613281 C 24.0625 21.640625 23.914062 19.582031 24.054688 17.433594 C 23.929688 16.644531 24.078125 15.910156 24.496094 15.226562 C 24.765625 15.28125 24.910156 15.429688 24.9375 15.667969 Z M 24.9375 15.667969 "/>
<path style=" stroke:none;fill-rule:evenodd;fill:rgb(98.823529%,56.862745%,69.019608%);fill-opacity:1;" d="M 40.828125 15.667969 C 40.855469 15.429688 41 15.28125 41.269531 15.226562 C 41.6875 15.910156 41.835938 16.644531 41.710938 17.433594 C 41.851562 19.582031 41.703125 21.640625 41.269531 23.613281 C 41.410156 20.882812 41.265625 18.234375 40.828125 15.667969 Z M 40.828125 15.667969 "/>
<path style=" stroke:none;fill-rule:evenodd;fill:rgb(98.039216%,20.392157%,38.431373%);fill-opacity:1;" d="M 21.40625 17.433594 C 22.289062 17.433594 23.171875 17.433594 24.054688 17.433594 C 23.914062 19.582031 24.0625 21.640625 24.496094 23.613281 C 24.644531 23.613281 24.789062 23.613281 24.9375 23.613281 C 23.859375 24.042969 22.679688 24.191406 21.40625 24.054688 C 21.40625 21.847656 21.40625 19.640625 21.40625 17.433594 Z M 21.40625 17.433594 "/>
<path style=" stroke:none;fill-rule:evenodd;fill:rgb(98.039216%,20.392157%,38.431373%);fill-opacity:1;" d="M 41.710938 17.433594 C 42.59375 17.433594 43.476562 17.433594 44.359375 17.433594 C 44.359375 19.640625 44.359375 21.847656 44.359375 24.054688 C 43.085938 24.191406 41.90625 24.042969 40.828125 23.613281 C 40.976562 23.613281 41.121094 23.613281 41.269531 23.613281 C 41.703125 21.640625 41.851562 19.582031 41.710938 17.433594 Z M 41.710938 17.433594 "/>
<path style=" stroke:none;fill-rule:evenodd;fill:rgb(98.823529%,41.176471%,37.647059%);fill-opacity:1;" d="M 31.117188 19.199219 C 31.550781 20.875 31.699219 22.640625 31.558594 24.496094 C 32.460938 24.652344 33.269531 24.652344 33.984375 24.496094 C 34.0625 22.648438 34.285156 20.882812 34.648438 19.199219 C 34.574219 21.851562 34.648438 24.5 34.867188 27.144531 C 36.832031 25.90625 38.816406 24.730469 40.828125 23.613281 C 41.90625 24.042969 43.085938 24.191406 44.359375 24.054688 C 44.355469 24.726562 44.058594 25.238281 43.476562 25.601562 C 40.085938 27.746094 36.554688 29.585938 32.882812 31.117188 C 29.691406 29.816406 26.601562 28.273438 23.613281 26.484375 C 22.476562 26.007812 21.738281 25.199219 21.40625 24.054688 C 22.679688 24.191406 23.859375 24.042969 24.9375 23.613281 C 26.949219 24.730469 28.933594 25.90625 30.898438 27.144531 C 31.117188 24.5 31.191406 21.851562 31.117188 19.199219 Z M 31.117188 19.199219 "/>
<path style=" stroke:none;fill-rule:evenodd;fill:rgb(95.294118%,10.980392%,86.666667%);fill-opacity:1;" d="M 39.0625 37.296875 C 38.03125 37.296875 37.003906 37.296875 35.972656 37.296875 C 34.355469 36.539062 33.472656 37.128906 33.324219 39.0625 C 32.183594 39.273438 31.300781 38.976562 30.675781 38.179688 C 31.890625 34.636719 34.246094 33.683594 37.738281 35.308594 C 38.347656 35.871094 38.789062 36.535156 39.0625 37.296875 Z M 39.0625 37.296875 "/>
<path style=" stroke:none;fill-rule:evenodd;fill:rgb(94.901961%,9.411765%,88.235294%);fill-opacity:1;" d="M 50.539062 36.414062 C 49.558594 37.449219 48.382812 37.59375 47.007812 36.855469 C 45.941406 36.347656 45.058594 36.640625 44.359375 37.738281 C 43.371094 37.867188 42.488281 37.722656 41.710938 37.296875 C 42.441406 35.246094 43.910156 34.214844 46.125 34.207031 C 48.058594 34.109375 49.527344 34.847656 50.539062 36.414062 Z M 50.539062 36.414062 "/>
<path style=" stroke:none;fill-rule:evenodd;fill:rgb(95.294118%,16.078431%,86.27451%);fill-opacity:1;" d="M 19.640625 37.296875 C 18.113281 37.730469 16.496094 37.878906 14.785156 37.738281 C 14.785156 36.855469 14.785156 35.972656 14.785156 35.089844 C 16.40625 35.089844 18.023438 35.089844 19.640625 35.089844 C 19.640625 35.824219 19.640625 36.5625 19.640625 37.296875 Z M 19.640625 37.296875 "/>
<path style=" stroke:none;fill-rule:evenodd;fill:rgb(100%,94.509804%,96.862745%);fill-opacity:1;" d="M 35.972656 37.296875 C 36.609375 38.21875 36.902344 39.25 36.855469 40.386719 C 36.855469 40.976562 36.855469 41.5625 36.855469 42.152344 C 36.855469 43.035156 36.855469 43.917969 36.855469 44.800781 C 35.53125 44.800781 34.207031 44.800781 32.882812 44.800781 C 32.882812 44.0625 32.882812 43.328125 32.882812 42.59375 C 32.785156 41.367188 32.933594 40.191406 33.324219 39.0625 C 33.472656 37.128906 34.355469 36.539062 35.972656 37.296875 Z M 35.972656 37.296875 "/>
<path style=" stroke:none;fill-rule:evenodd;fill:rgb(95.294118%,5.490196%,79.215686%);fill-opacity:1;" d="M 28.027344 39.0625 C 26.554688 39.0625 25.085938 39.0625 23.613281 39.0625 C 23.613281 38.621094 23.613281 38.179688 23.613281 37.738281 C 23.613281 36.855469 23.613281 35.972656 23.613281 35.089844 C 25.085938 35.089844 26.554688 35.089844 28.027344 35.089844 C 28.027344 36.414062 28.027344 37.738281 28.027344 39.0625 Z M 28.027344 39.0625 "/>
<path style=" stroke:none;fill-rule:evenodd;fill:rgb(96.078431%,15.294118%,72.941176%);fill-opacity:1;" d="M 50.539062 36.414062 C 51.425781 39.425781 50.320312 40.457031 47.226562 39.503906 C 47.007812 38.632812 46.933594 37.75 47.007812 36.855469 C 48.382812 37.59375 49.558594 37.449219 50.539062 36.414062 Z M 50.539062 36.414062 "/>
<path style=" stroke:none;fill-rule:evenodd;fill:rgb(96.470588%,12.941176%,65.882353%);fill-opacity:1;" d="M 19.640625 37.296875 C 20.074219 38.980469 20.371094 40.746094 20.523438 42.59375 C 19.84375 42.238281 19.109375 42.09375 18.316406 42.152344 C 18.003906 41.683594 17.859375 41.832031 17.875 42.59375 C 16.847656 42.003906 15.816406 42.003906 14.785156 42.59375 C 14.785156 40.976562 14.785156 39.355469 14.785156 37.738281 C 16.496094 37.878906 18.113281 37.730469 19.640625 37.296875 Z M 19.640625 37.296875 "/>
<path style=" stroke:none;fill-rule:evenodd;fill:rgb(96.078431%,9.411765%,69.019608%);fill-opacity:1;" d="M 35.972656 37.296875 C 37.003906 37.296875 38.03125 37.296875 39.0625 37.296875 C 39.472656 37.769531 39.621094 38.355469 39.503906 39.0625 C 39.503906 39.503906 39.503906 39.945312 39.503906 40.386719 C 38.621094 40.386719 37.738281 40.386719 36.855469 40.386719 C 36.902344 39.25 36.609375 38.21875 35.972656 37.296875 Z M 35.972656 37.296875 "/>
<path style=" stroke:none;fill-rule:evenodd;fill:rgb(96.862745%,14.509804%,63.137255%);fill-opacity:1;" d="M 41.710938 37.296875 C 42.488281 37.722656 43.371094 37.867188 44.359375 37.738281 C 44.300781 39.539062 45.039062 40.863281 46.566406 41.710938 C 45.09375 41.710938 43.621094 41.710938 42.152344 41.710938 C 41.5 40.996094 41.207031 40.113281 41.269531 39.0625 C 41.273438 38.378906 41.421875 37.792969 41.710938 37.296875 Z M 41.710938 37.296875 "/>
<path style=" stroke:none;fill-rule:evenodd;fill:rgb(97.254902%,13.333333%,56.078431%);fill-opacity:1;" d="M 23.613281 37.738281 C 23.613281 38.179688 23.613281 38.621094 23.613281 39.0625 C 25.085938 39.0625 26.554688 39.0625 28.027344 39.0625 C 28.027344 39.945312 28.027344 40.828125 28.027344 41.710938 C 27.65625 41.859375 27.511719 42.15625 27.585938 42.59375 C 26.851562 42.59375 26.113281 42.59375 25.378906 42.59375 C 25.011719 42.707031 24.71875 43.148438 24.496094 43.917969 C 24.03125 43.140625 23.296875 42.847656 22.289062 43.035156 C 22.605469 41.1875 23.046875 39.421875 23.613281 37.738281 Z M 23.613281 37.738281 "/>
<path style=" stroke:none;fill-rule:evenodd;fill:rgb(97.647059%,22.745098%,58.431373%);fill-opacity:1;" d="M 39.503906 39.0625 C 40.09375 40.679688 40.09375 42.300781 39.503906 43.917969 C 39.503906 43.328125 39.503906 42.738281 39.503906 42.152344 C 38.621094 42.152344 37.738281 42.152344 36.855469 42.152344 C 36.855469 41.5625 36.855469 40.976562 36.855469 40.386719 C 37.738281 40.386719 38.621094 40.386719 39.503906 40.386719 C 39.503906 39.945312 39.503906 39.503906 39.503906 39.0625 Z M 39.503906 39.0625 "/>
<path style=" stroke:none;fill-rule:evenodd;fill:rgb(97.254902%,8.627451%,55.686275%);fill-opacity:1;" d="M 30.675781 38.179688 C 31.300781 38.976562 32.183594 39.273438 33.324219 39.0625 C 32.933594 40.191406 32.785156 41.367188 32.882812 42.59375 C 32 42.59375 31.117188 42.59375 30.234375 42.59375 C 30.097656 41.03125 30.242188 39.558594 30.675781 38.179688 Z M 30.675781 38.179688 "/>
<path style=" stroke:none;fill-rule:evenodd;fill:rgb(98.039216%,14.509804%,40%);fill-opacity:1;" d="M 36.855469 42.152344 C 37.738281 42.152344 38.621094 42.152344 39.503906 42.152344 C 39.503906 42.738281 39.503906 43.328125 39.503906 43.917969 C 39.503906 44.652344 39.503906 45.386719 39.503906 46.125 C 36.414062 46.125 33.324219 46.125 30.234375 46.125 C 30.234375 44.945312 30.234375 43.769531 30.234375 42.59375 C 31.117188 42.59375 32 42.59375 32.882812 42.59375 C 32.882812 43.328125 32.882812 44.0625 32.882812 44.800781 C 34.207031 44.800781 35.53125 44.800781 36.855469 44.800781 C 36.855469 43.917969 36.855469 43.035156 36.855469 42.152344 Z M 36.855469 42.152344 "/>
<path style=" stroke:none;fill-rule:evenodd;fill:rgb(98.039216%,18.431373%,42.352941%);fill-opacity:1;" d="M 42.152344 41.710938 C 43.621094 41.710938 45.09375 41.710938 46.566406 41.710938 C 49.058594 42.875 50.527344 44.785156 50.980469 47.449219 C 50.097656 47.449219 49.214844 47.449219 48.332031 47.449219 C 47.0625 45.78125 45.445312 44.527344 43.476562 43.695312 C 42.75 43.199219 42.308594 42.535156 42.152344 41.710938 Z M 42.152344 41.710938 "/>
<path style=" stroke:none;fill-rule:evenodd;fill:rgb(98.039216%,15.686275%,39.607843%);fill-opacity:1;" d="M 25.378906 42.59375 C 26.113281 42.59375 26.851562 42.59375 27.585938 42.59375 C 27.585938 43.769531 27.585938 44.945312 27.585938 46.125 C 26.851562 46.125 26.113281 46.125 25.378906 46.125 C 25.378906 44.945312 25.378906 43.769531 25.378906 42.59375 Z M 25.378906 42.59375 "/>
<path style=" stroke:none;fill-rule:evenodd;fill:rgb(98.431373%,25.882353%,40.784314%);fill-opacity:1;" d="M 18.316406 42.152344 C 19.109375 42.09375 19.84375 42.238281 20.523438 42.59375 C 20.761719 43.476562 21.054688 44.359375 21.40625 45.242188 C 22.046875 44.644531 22.339844 43.910156 22.289062 43.035156 C 23.296875 42.847656 24.03125 43.140625 24.496094 43.917969 C 24.582031 45.476562 24.285156 46.949219 23.613281 48.332031 C 22.289062 48.332031 20.964844 48.332031 19.640625 48.332031 C 19.199219 46.273438 18.757812 44.214844 18.316406 42.152344 Z M 18.316406 42.152344 "/>
<path style=" stroke:none;fill-rule:evenodd;fill:rgb(98.431373%,29.019608%,36.470588%);fill-opacity:1;" d="M 30.234375 46.125 C 33.324219 46.125 36.414062 46.125 39.503906 46.125 C 39.503906 47.152344 39.503906 48.183594 39.503906 49.214844 C 38.230469 49.4375 37.199219 49.144531 36.414062 48.332031 C 35.628906 47.515625 34.597656 47.222656 33.324219 47.449219 C 33.324219 48.035156 33.324219 48.625 33.324219 49.214844 C 32.292969 49.214844 31.265625 49.214844 30.234375 49.214844 C 30.234375 48.183594 30.234375 47.152344 30.234375 46.125 Z M 30.234375 46.125 "/>
<path style=" stroke:none;fill-rule:evenodd;fill:rgb(98.431373%,27.45098%,37.647059%);fill-opacity:1;" d="M 17.875 42.59375 C 17.875 45.09375 17.875 47.59375 17.875 50.097656 C 16.847656 50.097656 15.816406 50.097656 14.785156 50.097656 C 14.785156 49.949219 14.785156 49.800781 14.785156 49.65625 C 14.785156 47.300781 14.785156 44.945312 14.785156 42.59375 C 15.816406 42.003906 16.847656 42.003906 17.875 42.59375 Z M 17.875 42.59375 "/>
<path style=" stroke:none;fill-rule:evenodd;fill:rgb(98.823529%,41.568627%,32.941176%);fill-opacity:1;" d="M 19.640625 48.332031 C 20.964844 48.332031 22.289062 48.332031 23.613281 48.332031 C 23.464844 49.507812 23.320312 50.683594 23.171875 51.863281 C 22.140625 51.863281 21.113281 51.863281 20.082031 51.863281 C 19.820312 50.703125 19.675781 49.527344 19.640625 48.332031 Z M 19.640625 48.332031 "/>
<path style=" stroke:none;fill-rule:evenodd;fill:rgb(98.823529%,38.431373%,39.607843%);fill-opacity:1;" d="M 28.027344 41.710938 C 28.027344 44.503906 28.027344 47.300781 28.027344 50.097656 C 27.144531 50.097656 26.261719 50.097656 25.378906 50.097656 C 25.378906 49.214844 25.378906 48.332031 25.378906 47.449219 C 25.378906 47.007812 25.378906 46.566406 25.378906 46.125 C 26.113281 46.125 26.851562 46.125 27.585938 46.125 C 27.585938 44.945312 27.585938 43.769531 27.585938 42.59375 C 27.511719 42.15625 27.65625 41.859375 28.027344 41.710938 Z M 28.027344 41.710938 "/>
<path style=" stroke:none;fill-rule:evenodd;fill:rgb(99.607843%,54.901961%,40%);fill-opacity:1;" d="M 25.378906 47.449219 C 25.378906 48.332031 25.378906 49.214844 25.378906 50.097656 C 26.261719 50.097656 27.144531 50.097656 28.027344 50.097656 C 28.453125 51.027344 28.601562 52.058594 28.46875 53.1875 C 27.292969 53.1875 26.113281 53.1875 24.9375 53.1875 C 24.796875 51.1875 24.945312 49.273438 25.378906 47.449219 Z M 25.378906 47.449219 "/>
<path style=" stroke:none;fill-rule:evenodd;fill:rgb(99.215686%,49.411765%,35.294118%);fill-opacity:1;" d="M 36.414062 48.332031 C 37.199219 49.144531 38.230469 49.4375 39.503906 49.214844 C 39.503906 50.390625 39.503906 51.566406 39.503906 52.746094 C 38.328125 52.746094 37.148438 52.746094 35.972656 52.746094 C 35.835938 51.179688 35.980469 49.710938 36.414062 48.332031 Z M 36.414062 48.332031 "/>
<path style=" stroke:none;fill-rule:evenodd;fill:rgb(98.823529%,47.843137%,30.588235%);fill-opacity:1;" d="M 14.785156 50.097656 C 15.816406 50.097656 16.847656 50.097656 17.875 50.097656 C 17.875 50.390625 17.875 50.683594 17.875 50.980469 C 17.875 51.421875 17.875 51.863281 17.875 52.304688 C 16.847656 52.304688 15.816406 52.304688 14.785156 52.304688 C 14.785156 51.566406 14.785156 50.832031 14.785156 50.097656 Z M 14.785156 50.097656 "/>
<path style=" stroke:none;fill-rule:evenodd;fill:rgb(98.823529%,46.666667%,33.72549%);fill-opacity:1;" d="M 48.332031 47.449219 C 49.214844 47.449219 50.097656 47.449219 50.980469 47.449219 C 51.257812 50.992188 49.640625 52.90625 46.125 53.1875 C 41.824219 52.851562 40.5 50.71875 42.152344 46.785156 C 44.796875 46.050781 45.898438 47.007812 45.460938 49.65625 C 44.105469 50.464844 44.328125 50.90625 46.125 50.980469 C 48.105469 50.679688 48.84375 49.503906 48.332031 47.449219 Z M 48.332031 47.449219 "/>
<path style=" stroke:none;fill-rule:evenodd;fill:rgb(99.607843%,75.294118%,63.529412%);fill-opacity:1;" d="M 14.785156 49.65625 C 14.785156 49.800781 14.785156 49.949219 14.785156 50.097656 C 14.785156 50.832031 14.785156 51.566406 14.785156 52.304688 C 15.816406 52.304688 16.847656 52.304688 17.875 52.304688 C 17.875 51.863281 17.875 51.421875 17.875 50.980469 C 18.289062 51.449219 18.433594 52.039062 18.316406 52.746094 C 16.992188 52.746094 15.667969 52.746094 14.34375 52.746094 C 14.210938 51.617188 14.359375 50.585938 14.785156 49.65625 Z M 14.785156 49.65625 "/>
<path style=" stroke:none;fill-rule:evenodd;fill:rgb(99.215686%,53.333333%,35.686275%);fill-opacity:1;" d="M 30.234375 49.214844 C 31.265625 49.214844 32.292969 49.214844 33.324219 49.214844 C 33.675781 50.507812 33.824219 51.832031 33.765625 53.1875 C 32.589844 53.1875 31.410156 53.1875 30.234375 53.1875 C 30.234375 51.863281 30.234375 50.539062 30.234375 49.214844 Z M 30.234375 49.214844 "/>
</g>
</svg>
